<svg width="100%" viewBox="0 0 680 595" role="img" xmlns="http://www.w3.org/2000/svg">
<title>Kiến trúc tổng hợp báo cáo kinh doanh đa nguồn</title>
<desc>Luồng dữ liệu từ 4 nguồn POS, ERP, CRM, kho hàng qua NiFi, Kafka, Spark SQL và MLlib, lưu vào HDFS/Hive và trực quan hóa trên dashboard BI.</desc>
<defs>
<marker id="arrow" viewBox="0 0 10 10" refX="8" refY="5" markerWidth="6" markerHeight="6" orient="auto-start-reverse"><path d="M2 1L8 5L2 9" fill="none" stroke="context-stroke" stroke-width="1.5" stroke-linecap="round" stroke-linejoin="round"/></marker>
<style>
text{font-family:'Segoe UI',Arial,sans-serif}
.th{font-size:14px;font-weight:500}
.ts{font-size:12px}
.arr{stroke:#888780;stroke-width:1.5;fill:none}
.gray rect{fill:#F1EFE8;stroke:#5F5E5A}.gray .th{fill:#2C2C2A}.gray .ts{fill:#5F5E5A}
.coral rect{fill:#FAECE7;stroke:#993C1D}.coral .th{fill:#4A1B0C}.coral .ts{fill:#993C1D}
.teal rect{fill:#E1F5EE;stroke:#0F6E56}.teal .th{fill:#04342C}.teal .ts{fill:#0F6E56}
.purple rect{fill:#EEEDFE;stroke:#534AB7}.purple .th{fill:#26215C}.purple .ts{fill:#534AB7}
</style>
</defs>

<g class="gray"><rect x="43" y="50" width="135" height="56" rx="8" stroke-width="0.5"/><text class="th" x="110" y="72" text-anchor="middle" dominant-baseline="central">POS</text><text class="ts" x="110" y="90" text-anchor="middle" dominant-baseline="central">Bán lẻ · JSON</text></g>
<g class="gray"><rect x="196" y="50" width="135" height="56" rx="8" stroke-width="0.5"/><text class="th" x="263" y="72" text-anchor="middle" dominant-baseline="central">ERP</text><text class="ts" x="263" y="90" text-anchor="middle" dominant-baseline="central">Tài chính · CSV</text></g>
<g class="gray"><rect x="349" y="50" width="135" height="56" rx="8" stroke-width="0.5"/><text class="th" x="416" y="72" text-anchor="middle" dominant-baseline="central">CRM</text><text class="ts" x="416" y="90" text-anchor="middle" dominant-baseline="central">Khách hàng · API</text></g>
<g class="gray"><rect x="502" y="50" width="135" height="56" rx="8" stroke-width="0.5"/><text class="th" x="569" y="72" text-anchor="middle" dominant-baseline="central">Kho hàng</text><text class="ts" x="569" y="90" text-anchor="middle" dominant-baseline="central">Tồn kho · Excel</text></g>

<line x1="110" y1="106" x2="225" y2="148" class="arr" marker-end="url(#arrow)"/>
<line x1="263" y1="106" x2="300" y2="148" class="arr" marker-end="url(#arrow)"/>
<line x1="416" y1="106" x2="380" y2="148" class="arr" marker-end="url(#arrow)"/>
<line x1="569" y1="106" x2="455" y2="148" class="arr" marker-end="url(#arrow)"/>

<g class="coral"><rect x="160" y="150" width="360" height="56" rx="8" stroke-width="0.5"/><text class="th" x="340" y="172" text-anchor="middle" dominant-baseline="central">Apache NiFi</text><text class="ts" x="340" y="190" text-anchor="middle" dominant-baseline="central">Thu thập · làm sạch · chuẩn hóa schema</text></g>
<line x1="340" y1="206" x2="340" y2="238" class="arr" marker-end="url(#arrow)"/>

<g class="coral"><rect x="160" y="240" width="360" height="44" rx="8" stroke-width="0.5"/><text class="th" x="340" y="262" text-anchor="middle" dominant-baseline="central">Kafka · topic: sales-report-clean</text></g>
<line x1="340" y1="284" x2="215" y2="322" class="arr" marker-end="url(#arrow)"/>
<line x1="340" y1="284" x2="465" y2="322" class="arr" marker-end="url(#arrow)"/>

<g class="teal"><rect x="90" y="324" width="230" height="56" rx="8" stroke-width="0.5"/><text class="th" x="205" y="346" text-anchor="middle" dominant-baseline="central">Spark SQL</text><text class="ts" x="205" y="364" text-anchor="middle" dominant-baseline="central">Tổng hợp DT, CP, LN theo kỳ</text></g>
<g class="teal"><rect x="360" y="324" width="230" height="56" rx="8" stroke-width="0.5"/><text class="th" x="475" y="346" text-anchor="middle" dominant-baseline="central">Spark MLlib</text><text class="ts" x="475" y="364" text-anchor="middle" dominant-baseline="central">Dự báo · phân cụm · tương quan</text></g>

<line x1="205" y1="380" x2="325" y2="418" class="arr" marker-end="url(#arrow)"/>
<line x1="475" y1="380" x2="355" y2="418" class="arr" marker-end="url(#arrow)"/>

<g class="gray"><rect x="160" y="420" width="360" height="44" rx="8" stroke-width="0.5"/><text class="th" x="340" y="442" text-anchor="middle" dominant-baseline="central">HDFS / Hive / PostgreSQL</text></g>
<line x1="340" y1="464" x2="340" y2="502" class="arr" marker-end="url(#arrow)"/>

<g class="purple"><rect x="160" y="504" width="360" height="56" rx="8" stroke-width="0.5"/><text class="th" x="340" y="526" text-anchor="middle" dominant-baseline="central">Dashboard BI</text><text class="ts" x="340" y="544" text-anchor="middle" dominant-baseline="central">Superset · Power BI · Grafana</text></g>
</svg>
